<?xml version="1.0" encoding="iso-8859-1"?>
<!-- Uploaded to: SVG Repo, www.svgrepo.com, Generator: SVG Repo Mixer Tools -->
<svg height="800px" width="800px" version="1.1" id="Layer_1" xmlns="http://www.w3.org/2000/svg" xmlns:xlink="http://www.w3.org/1999/xlink" 
	 viewBox="0 0 392.598 392.598" xml:space="preserve">
<path style="fill:#FFFFFF;" d="M21.786,350.707c0,11.055,8.986,20.04,20.04,20.04h308.945c11.055,0,20.04-8.986,20.04-20.04V97.616
	H21.786V350.707z"/>
<path style="fill:#56ACE0;" d="M43.572,119.467v20.234h35.297c6.012,0,10.925,4.848,10.925,10.925
	c0,6.012-4.848,10.925-10.925,10.925H43.572v14.933h16.937c6.012,0,10.925,4.848,10.925,10.925c0,6.012-4.848,10.925-10.925,10.925
	H43.572v150.691h305.325V119.531H43.572V119.467z"/>
<path style="fill:#194F82;" d="M350.707,0H41.826C18.812,0,0,18.747,0,41.826v308.945c0,23.014,18.747,41.826,41.826,41.826h308.945
	c23.014,0,41.826-18.747,41.826-41.826V41.826C392.533,18.747,373.786,0,350.707,0z M370.747,350.707
	c0,11.055-8.986,20.04-20.04,20.04H41.826c-11.055,0-20.04-8.986-20.04-20.04V97.616h348.962L370.747,350.707L370.747,350.707z
	 M370.747,75.83H21.786V41.826c0-11.055,8.986-20.04,20.04-20.04h308.945c11.055,0,20.04,8.986,20.04,20.04V75.83H370.747z"/>
<path style="fill:#FFC10D;" d="M370.747,41.826c0-11.055-8.986-20.04-20.04-20.04H41.826c-11.055,0-20.04,8.986-20.04,20.04V75.83
	h348.962L370.747,41.826L370.747,41.826z"/>
<g>
	<path style="fill:#194F82;" d="M350.707,0H41.826C18.812,0,0,18.747,0,41.826v308.945c0,23.014,18.747,41.826,41.826,41.826
		h308.945c23.014,0,41.826-18.747,41.826-41.826V41.826C392.533,18.747,373.786,0,350.707,0z M370.747,350.707
		c0,11.055-8.986,20.04-20.04,20.04H41.826c-11.055,0-20.04-8.986-20.04-20.04V97.616h348.962L370.747,350.707L370.747,350.707z
		 M21.786,41.826c0-11.055,8.986-20.04,20.04-20.04h308.945c11.055,0,20.04,8.986,20.04,20.04V75.83H21.786V41.826z"/>
	<path style="fill:#194F82;" d="M335.515,37.947h-27.539c-6.012,0-10.925,4.848-10.925,10.925s4.849,10.925,10.925,10.925h27.539
		c6.012,0,10.925-4.848,10.925-10.925S341.527,37.947,335.515,37.947z"/>
	<path style="fill:#194F82;" d="M242.101,37.947H57.018c-6.012,0-10.925,4.848-10.925,10.925s4.848,10.925,10.925,10.925h185.147
		c6.012,0,10.925-4.848,10.925-10.925S248.113,37.947,242.101,37.947z"/>
	<path style="fill:#194F82;" d="M85.333,241.842l47.515,47.515c4.267,4.267,11.119,4.267,15.451,0
		c4.267-4.267,4.267-11.119,0-15.451l-39.887-39.887l39.887-39.887c4.267-4.267,4.267-11.119,0-15.451l0,0
		c-4.267-4.267-11.119-4.267-15.451,0l-47.515,47.515C81.261,230.529,81.067,237.511,85.333,241.842z"/>
	<path style="fill:#194F82;" d="M307.2,226.457l-47.58-47.58c-4.267-4.267-11.119-4.267-15.451,0l0,0
		c-4.267,4.267-4.267,11.119,0,15.451l39.887,39.887l-39.887,39.887c-4.267,4.267-4.267,11.119,0,15.451
		c4.267,4.267,11.119,4.267,15.451,0l47.515-47.515C311.531,237.382,311.337,230.723,307.2,226.457z"/>
	<path style="fill:#194F82;" d="M170.408,328.339c5.624,1.552,11.636-1.681,13.382-7.628l46.028-167.24
		c1.616-5.818-1.745-11.83-7.628-13.446c-5.818-1.616-11.83,1.745-13.382,7.628l-46.028,167.24
		C161.099,320.646,164.525,326.723,170.408,328.339z"/>
</g>
</svg>